<svg viewBox="0 0 28 28" fill="#77777D" xmlns="http://www.w3.org/2000/svg">
<path d="M14 0.6875C6.625 0.6875 0.6875 6.625 0.6875 14C0.6875 21.375 6.625 27.3125 14 27.3125C21.375 27.3125 27.3125 21.375 27.3125 14C27.3125 6.625 21.375 0.6875 14 0.6875ZM19.75 19.75C19.1875 20.25 18.375 20.25 17.875 19.75L14 15.875L10.125 19.75C9.625 20.25 8.8125 20.25 8.25 19.75C7.75 19.1875 7.75 18.375 8.25 17.875L12.125 14L8.25 10.125C7.75 9.625 7.75 8.8125 8.25 8.25C8.8125 7.75 9.625 7.75 10.125 8.25L14 12.125L17.875 8.25C18.375 7.75 19.1875 7.75 19.75 8.25C20.25 8.8125 20.25 9.625 19.75 10.125L15.875 14L19.75 17.875C20.25 18.375 20.25 19.1875 19.75 19.75Z" />
</svg>
