<svg viewBox="0 0 48 48" fill="white" xmlns="http://www.w3.org/2000/svg">
<path d="M38.0151 0H9.98488C4.47038 0 0 4.47038 0 9.98488V38.0151C0 43.5296 4.47038 48 9.98488 48H38.0151C43.5296 48 48 43.5296 48 38.0151V9.98488C48 4.47038 43.5296 0 38.0151 0Z" fill="#CB2026"/>
<path d="M32.7543 8.62226H15.246C14.2592 8.60354 13.3051 8.97567 12.5916 9.6575C11.8781 10.3393 11.4631 11.2756 11.437 12.2622C11.4605 13.2505 11.8744 14.1893 12.5882 14.8732C13.302 15.5572 14.2576 15.9307 15.246 15.912H24.7187L17.0858 24.241C16.7489 24.5997 16.4881 25.0231 16.3194 25.4854C16.1507 25.9477 16.0775 26.4395 16.1042 26.9309C16.1309 27.4223 16.257 27.9032 16.4749 28.3445C16.6928 28.7858 16.9979 29.1784 17.3718 29.4984C17.7456 29.8185 18.1806 30.0594 18.6502 30.2065C19.1198 30.3537 19.6144 30.4041 20.1041 30.3547C20.5938 30.3053 21.0683 30.1572 21.4991 29.9191C21.9299 29.6811 22.3079 29.3582 22.6103 28.9699L35.4544 14.9175C35.6129 14.7346 35.7528 14.5364 35.8721 14.3258C36.3192 13.7267 36.5615 12.9997 36.5633 12.2522C36.5346 11.2674 36.1185 10.3337 35.4053 9.65397C34.692 8.97426 33.7394 8.6035 32.7543 8.62226Z" />
<path d="M31.0585 32.202C30.9889 32.2567 24.0969 37.8558 15.4099 32.0926C14.8911 31.7783 14.2708 31.6771 13.679 31.8101C13.0872 31.9431 12.5699 32.3001 12.2355 32.8061C11.9012 33.3122 11.7757 33.9281 11.8854 34.5246C11.9952 35.1212 12.3316 35.6521 12.8242 36.006C15.9541 38.1654 19.6581 39.3395 23.4605 39.3774C27.2963 39.4057 31.0309 38.1468 34.0669 35.8021C34.5436 35.4032 34.8424 34.8312 34.8974 34.212C34.9524 33.5928 34.7592 32.9771 34.3603 32.5004C33.9613 32.0236 33.3894 31.7249 32.7702 31.6698C32.1509 31.6148 31.5353 31.808 31.0585 32.207V32.202Z"/>
</svg>
